Coordinates
version=1
nRows=13
nColumns=36
inDegrees=yes

Units are S.I. units (second, meters, Newtons, ...)
If the header above contains a line with 'inDegrees', this indicates whether rotational values are in degrees (yes) or radians (no).

endheader
time	pelvis_tilt	pelvis_list	pelvis_rotation	pelvis_tx	pelvis_ty	pelvis_tz	hip_flexion_r	hip_adduction_r	hip_rotation_r	knee_angle_r	knee_angle_r_beta	ankle_angle_r	subtalar_angle_r	mtp_angle_r	hip_flexion_l	hip_adduction_l	hip_rotation_l	knee_angle_l	knee_angle_l_beta	ankle_angle_l	subtalar_angle_l	mtp_angle_l	lumbar_extension	lumbar_bending	lumbar_rotation	arm_flex_r	arm_add_r	arm_rot_r	elbow_flex_r	pro_sup_r	arm_flex_l	arm_add_l	arm_rot_l	elbow_flex_l	pro_sup_l
      0.00000000	     -3.68173851	      2.69813708	     -0.85907656	      0.67619965	      0.77803860	      0.71990484	    -19.51184167	     -1.34207731	      1.84126543	      3.53803546	      0.06175037	      9.50615370	     -7.51959955	     -7.13672412	     34.90451692	      3.86002728	      1.45533858	     17.15903192	      0.29948160	      2.43624142	     -5.45918560	     -7.13672412	     -6.37874259	     -3.46876600	      7.01495205	      8.41988151	    -13.57686644	     -6.62392657	     31.49871734	     91.26134175	      5.81881903	    -10.22999059	      2.01959840	     14.03234258	     90.31438742
      0.01666670	     -2.16675063	      2.58776446	     -1.08980876	      0.67835157	      0.78289176	      0.71730486	    -20.72632209	     -1.45874572	      1.59836598	      6.93557864	      0.12104868	      9.34957480	     -6.58000209	     -7.16104713	     33.65710228	      4.15363884	      2.17167688	     20.63354700	      0.36012333	      3.54306036	     -8.19912594	     -7.16104713	     -8.57093073	     -3.85246104	      6.70709543	      9.24307150	    -13.55378702	     -6.53254939	     32.79636085	     90.74639508	      6.65329732	    -10.64074089	      1.96999472	     13.96781757	     90.36452877
      0.03333330	     -0.85961793	      2.85105703	     -1.17162309	      0.68012580	      0.78726757	      0.71533620	    -21.03188302	     -1.73335782	      1.46505024	     11.13346958	      0.19431570	      8.28897303	     -7.82306027	     -7.16910137	     31.80682957	      4.90329747	      3.21641335	     23.11871369	      0.40349767	      5.32013104	     -9.01725651	     -7.16910137	    -10.00138757	     -4.05817457	      6.30283676	     10.11455961	    -13.50741007	     -6.28168267	     32.90825218	     90.75264476	      7.37600386	    -11.06192530	      2.29712312	     13.51068874	     90.71624170
      0.05000000	      0.24378108	      3.39704568	     -1.04958316	      0.68247144	      0.79212164	      0.71379039	    -20.27719820	     -2.59193003	      0.33889453	     16.77542713	      0.29278644	      5.57235637	     -9.22007470	     -7.17436169	     30.02912413	      5.90640914	      3.73747254	     24.80688949	      0.43296190	      6.47321517	     -9.84185019	     -7.17436169	    -11.29102574	     -4.69723699	      5.74082768	     10.58789870	    -13.36131383	     -5.97552254	     32.74733117	     90.84116126	      8.04218063	    -11.52198638	      2.65870174	     13.15758572	     91.03565569
      0.06666670	      1.19996008	      3.52582559	     -0.89837413	      0.68511337	      0.79814559	      0.71248470	    -18.56034147	     -2.94153115	     -0.03826649	     23.22924112	      0.40542674	     -0.93117588	    -12.58915722	     -7.19209633	     28.16181745	      6.50266224	      4.10638217	     26.23397546	      0.45786925	      7.59967433	    -10.23280386	     -7.19209633	    -12.29808901	     -4.92935495	      4.99586861	     11.06455343	    -13.19765986	     -4.81848814	     31.71196349	     91.18953336	      8.67889150	    -11.89484926	      4.04846418	     12.29623792	     92.03270670
      0.08333330	      1.77334179	      3.68279568	     -0.71740207	      0.68817341	      0.80359103	      0.71084226	    -15.12920833	     -3.66999267	     -1.08481234	     31.56468237	      0.55090763	     -7.03933297	    -13.94507035	     -7.20289546	     26.48197340	      7.03218846	      4.39690275	     27.43908022	      0.47890229	      8.61166152	    -10.34398788	     -7.20289546	    -12.89245842	     -5.19658146	      4.34429975	     10.82996961	    -12.89305967	     -4.20773570	     31.01114025	     91.40327159	      8.90686559	    -12.18991523	      4.86238611	     11.92758492	     92.60427622
      0.10000000	      1.71531494	      3.54298774	     -0.64887239	      0.69121847	      0.80756023	      0.70899495	    -10.16980254	     -4.14756898	     -1.61940603	     40.53579314	      0.70748306	    -12.80660921	    -15.29503157	     -7.25263977	     25.17423751	      7.10910295	      4.67732842	     28.08490345	      0.49017404	      9.64308364	     -9.89985910	     -7.25263977	    -12.55437064	     -5.13196881	      4.10986436	     10.58388751	    -12.84614224	     -2.29130445	     28.93552221	     92.91637711	      9.18650363	    -12.41501310	      7.69222556	     11.01695825	     95.51090740
      0.11666670	      1.72812969	      3.48429732	     -0.89337840	      0.69339729	      0.81044502	      0.70752764	     -5.08360817	     -4.67813417	     -1.87634501	     48.86340918	      0.85282737	    -15.81768526	    -15.68275047	     -7.28655415	     23.32721931	      7.07490099	      4.76042003	     27.61567842	      0.48198451	     10.25836922	     -9.44820326	     -7.28655415	    -12.46531959	     -5.18835586	      4.14704602	      9.99348483	    -12.52401093	     -1.96598234	     27.78576368	     91.00330035	      9.09699539	    -12.35385355	      7.71959074	     10.68185979	     93.54640046
      0.13333330	      1.46858558	      3.42178324	     -1.21452312	      0.69455928	      0.81145329	      0.70652095	     -0.20713699	     -4.90368890	     -1.89723905	     55.42322688	      0.96731779	    -16.34251883	    -15.48900023	     -7.38321397	     21.53770383	      6.92315102	      4.69304505	     26.48606813	      0.46226909	     10.53419962	     -9.03039156	     -7.38321397	    -11.95281925	     -5.24734057	      4.28088554	      9.36784964	    -12.23336426	     -2.56491056	     26.49642953	     94.98267354	      8.91188258	    -12.34965612	      5.99279070	     10.44852999	     98.00740544
      0.15000000	      1.65128665	      3.42906467	     -1.41463644	      0.69568941	      0.81267418	      0.70525771	      3.12973823	     -4.94305740	     -1.96915209	     59.67405189	      1.04150868	    -15.49329033	    -15.35993457	     -7.38434800	     18.95154105	      6.90092720	      4.74925481	     24.68117451	      0.43076776	     10.38753269	     -8.97239095	     -7.38434800	    -11.88404089	     -5.34892675	      4.18140581	      8.67523003	    -12.04223959	     -2.67159206	     25.52353927	     94.05939822	      8.70313082	    -12.40622843	      5.60787821	     10.56237287	     96.91561212
      0.16666670	      1.84272263	      3.30831023	     -1.53609273	      0.69761551	      0.81483763	      0.70334385	      5.54836661	     -4.76393508	     -2.17097134	     62.13488623	      1.08445834	    -13.29082499	    -14.28845366	     -7.41643870	     16.25091016	      6.79503891	      4.93700812	     22.63916322	      0.39512794	     10.29468215	     -8.87909579	     -7.41643870	    -11.51074452	     -5.23495705	      3.74141467	      8.31925694	    -12.00636751	     -1.97436166	     23.65956628	     94.46957550	      8.66282631	    -12.34855899	      4.50450110	     10.13791266	     96.98160281
      0.18333330	      2.49874418	      2.96477353	     -1.80780618	      0.69953582	      0.81849708	      0.70166424	      6.90651450	     -4.16331168	     -2.14075805	     63.32675420	      1.10526037	    -11.20076751	    -13.74687766	     -7.42884929	     12.96197181	      6.45300370	      4.99592635	     20.37824666	      0.35566750	     10.18998489	     -8.65388852	     -7.42884929	    -11.75319009	     -4.84880233	      3.43930676	      7.84880977	    -12.04549644	     -2.03322646	     22.37239914	     92.81970638	      8.82408854	    -12.24425339	      3.97957674	     10.25851690	     94.89249117
      0.20000000	      2.91190433	      2.51343639	     -1.85774537	      0.69957048	      0.82165641	      0.70023473	      8.49841552	     -3.39386647	     -2.22387298	     63.76267121	      1.11286855	     -8.63656773	    -13.35417329	     -7.43520707	      9.99592487	      6.12243254	      5.62022819	     18.19461133	      0.31755587	     10.13885964	     -8.82710333	     -7.43520707	    -11.72987589	     -4.27182528	      2.88155063	      7.11834312	    -12.30947851	     -1.65579546	     21.94660518	     94.27765968	      8.91667630	    -12.27921845	      3.32841524	     10.99592464	     96.08338954
